<svg xmlns="http://www.w3.org/2000/svg" viewBox="0 0 1600 900" preserveAspectRatio="xMidYMid slice">
<defs><linearGradient id="s" x2="0" y2="1"><stop stop-color="#F7F6F3"/><stop offset="1" stop-color="#C9D0D1"/></linearGradient>
<linearGradient id="m" x2="1" y2="1"><stop stop-color="#CFD3D2"/><stop offset="1" stop-color="#354047"/></linearGradient>
<linearGradient id="w" x2="0" y2="1"><stop stop-color="#9FA9AA"/><stop offset="1" stop-color="#49555B"/></linearGradient></defs>
<rect width="1600" height="900" fill="url(#s)"/>
<path d="M420 660L800 270 1010 430 1180 220 1600 590V900H420Z" fill="url(#m)"/>
<path d="M940 350l90 85 60-42 60 42 58-42 90 80" fill="none" stroke="#ECECE8" stroke-width="18" opacity=".6"/>
<path d="M0 650C320 610 560 700 860 660s500-20 740 20V900H0Z" fill="url(#w)"/>
<g opacity=".45" fill="none" stroke="#B89C74" stroke-width="3">
<path d="M850 820C1050 650 1230 590 1600 500"/><path d="M920 850C1130 690 1320 630 1600 570"/><path d="M1010 875C1190 740 1380 690 1600 640"/></g>
<ellipse cx="320" cy="780" rx="130" ry="40" fill="#27333A" opacity=".65"/><ellipse cx="540" cy="815" rx="180" ry="46" fill="#27333A" opacity=".65"/>
</svg>